<?xml version="1.0" standalone="no"?>
<!DOCTYPE svg PUBLIC "-//W3C//DTD SVG 20010904//EN"
 "http://www.w3.org/TR/2001/REC-SVG-20010904/DTD/svg10.dtd">
<svg version="1.0" xmlns="http://www.w3.org/2000/svg"
 width="512.000000pt" height="512.000000pt" viewBox="0 0 512.000000 512.000000"
 preserveAspectRatio="xMidYMid meet">
<metadata>
Created by potrace 1.14, written by Peter Selinger 2001-2017
</metadata>
<g transform="translate(0.000000,512.000000) scale(0.100000,-0.100000)"
fill="#000000" stroke="none">
<path d="M937 5110 c-343 -59 -617 -303 -724 -645 l-28 -90 0 -1815 0 -1815
23 -78 c91 -315 315 -542 632 -639 l75 -23 1595 -3 c1122 -2 1618 0 1672 8
341 49 624 296 730 640 l23 75 3 1795 c2 1616 1 1803 -14 1875 -67 337 -313
600 -649 697 l-80 23 -1605 1 c-883 1 -1627 -2 -1653 -6z m409 -1207 c57 -30
90 -73 112 -146 11 -34 100 -362 198 -729 98 -368 182 -668 185 -668 3 0 102
325 220 722 231 778 230 777 311 820 40 21 55 23 218 23 169 0 177 -1 225 -26
29 -14 62 -42 78 -65 21 -30 83 -219 243 -745 253 -828 223 -738 234 -719 4 8
95 334 201 724 210 771 207 763 291 808 38 20 57 23 168 23 113 0 129 -2 162
-23 56 -35 83 -86 81 -152 -1 -38 -91 -372 -297 -1105 -163 -577 -304 -1067
-313 -1088 -22 -50 -82 -101 -137 -117 -28 -8 -98 -11 -202 -8 -145 3 -162 5
-196 26 -20 13 -46 37 -56 55 -11 18 -126 363 -257 767 -130 404 -241 739
-245 744 -4 4 -26 -50 -49 -120 -245 -776 -444 -1383 -459 -1404 -10 -14 -38
-35 -62 -47 -40 -21 -58 -23 -200 -23 -85 0 -172 5 -193 11 -38 10 -110 66
-127 99 -18 34 -650 2190 -650 2217 0 36 31 103 58 126 44 40 89 47 257 44
141 -2 165 -5 201 -24z"/>
</g>
</svg>
