<?xml version="1.0" standalone="no"?>
<!DOCTYPE svg PUBLIC "-//W3C//DTD SVG 20010904//EN"
 "http://www.w3.org/TR/2001/REC-SVG-20010904/DTD/svg10.dtd">
<svg version="1.0" xmlns="http://www.w3.org/2000/svg"
 width="2083.000000pt" height="2083.000000pt" viewBox="0 0 2083.000000 2083.000000"
 preserveAspectRatio="xMidYMid meet">
<metadata>
Created by potrace 1.14, written by Peter Selinger 2001-2017
</metadata>
<g transform="translate(0.000000,2083.000000) scale(0.100000,-0.100000)"
fill="#000000" stroke="none">
<path d="M4450 20823 c-799 -60 -1592 -331 -2271 -778 -1145 -752 -1925 -1962
-2128 -3300 -49 -321 -46 23 -46 -6340 0 -5679 1 -5987 18 -6125 120 -979 484
-1823 1108 -2570 134 -162 420 -448 579 -579 747 -623 1567 -979 2545 -1108
134 -17 377 -18 6165 -18 l6025 0 170 23 c428 59 793 152 1165 299 1116 441
2036 1291 2565 2368 266 542 426 1115 475 1700 8 92 10 1866 8 6100 l-3 5970
-23 155 c-82 567 -222 1031 -453 1501 -112 228 -185 354 -325 564 -474 712
-1120 1278 -1889 1655 -436 214 -863 352 -1328 430 -390 65 87 60 -6406 58
-3248 -1 -5926 -3 -5951 -5z m-755 -3984 c327 -28 512 -105 631 -262 102 -135
261 -500 363 -832 23 -71 448 -1698 946 -3614 498 -1916 907 -3486 909 -3489
3 -2 13 25 24 60 595 1921 1982 6372 2058 6603 165 502 268 750 386 926 111
166 382 420 528 494 120 61 286 98 517 115 223 17 975 8 1106 -14 112 -18 261
-65 327 -103 130 -75 350 -276 453 -414 88 -117 141 -218 216 -409 155 -394
112 -260 1321 -4115 540 -1721 985 -3133 988 -3137 6 -6 979 3721 1609 6162
326 1261 371 1404 511 1614 58 86 234 271 305 320 67 45 178 81 292 95 115 14
711 14 846 1 279 -28 451 -109 625 -292 160 -170 244 -359 260 -593 12 -170
-30 -441 -126 -820 -70 -275 -2305 -8082 -2425 -8471 -81 -262 -167 -512 -226
-662 -98 -248 -249 -452 -467 -633 -148 -123 -252 -167 -447 -189 -122 -13
-1062 -13 -1200 1 -269 27 -408 96 -633 313 -189 183 -276 329 -415 701 -150
398 -312 907 -1372 4303 -594 1898 -1082 3449 -1086 3445 -4 -5 -489 -1533
-1079 -3398 -589 -1864 -1112 -3514 -1162 -3665 -176 -536 -330 -940 -410
-1074 -123 -211 -381 -462 -573 -558 -201 -102 -395 -128 -963 -128 -460 0
-598 18 -753 96 -374 188 -628 530 -819 1104 -105 314 -204 657 -1346 4640
-1245 4346 -1201 4191 -1249 4415 -129 606 -68 916 237 1210 105 103 183 154
295 195 71 25 218 55 318 63 98 9 571 6 680 -4z"/>
</g>
</svg>
